<svg width="133" height="120" viewBox="0 0 133 120" fill="none" xmlns="http://www.w3.org/2000/svg">
<path fill-rule="evenodd" clip-rule="evenodd" d="M65.3962 17.4204C64.0671 17.2945 62.7644 16.8333 61.6279 16.037C47.5803 6.19346 27.8657 1.73269 13.1919 0.074559C5.92956 -0.746075 0 5.31836 0 12.8006V87.3136C0 94.7958 5.92956 100.862 13.1919 101.683C27.8657 103.341 47.5803 107.802 61.6279 117.646C62.7644 118.442 64.0671 118.903 65.3962 119.029V17.4204ZM66.8962 119.029C68.2258 118.903 69.529 118.442 70.6659 117.646C84.7135 107.802 104.428 103.341 119.102 101.683C126.364 100.862 132.294 94.7958 132.294 87.3136V12.8006C132.294 5.31836 126.364 -0.746075 119.102 0.074559C104.428 1.73269 84.7134 6.19346 70.6659 16.037C69.529 16.8336 68.2257 17.2948 66.8962 17.4205V119.029Z" fill="#0B1220"/>
</svg>
