<svg width="121" height="40" viewBox="0 0 121 40" fill="none" xmlns="http://www.w3.org/2000/svg">
<path fill-rule="evenodd" clip-rule="evenodd" d="M19.2497 9.25225C19.1143 9.19727 18.9838 9.12677 18.861 9.04074C15.3216 6.56053 10.3542 5.43658 6.65689 5.01879C4.82705 4.81202 3.33301 6.34004 3.33301 8.2253V26.9999C3.33301 28.8852 4.82705 30.4138 6.65689 30.6205C10.3542 31.0383 15.3216 32.1623 18.861 34.6425C18.9838 34.7285 19.1143 34.799 19.2497 34.854V9.25225ZM20.7497 34.854C20.8851 34.799 21.0155 34.7285 21.1383 34.6425C24.6778 32.1623 29.6452 31.0383 33.3425 30.6205C35.1723 30.4138 36.6663 28.8852 36.6663 26.9999V8.2253C36.6663 6.34004 35.1723 4.81202 33.3425 5.01879C29.6452 5.43658 24.6778 6.56053 21.1383 9.04074C21.0155 9.12677 20.8851 9.19727 20.7497 9.25225V34.854ZM7.59184 13.6429C7.65524 13.2336 8.03846 12.9532 8.44779 13.0166C10.5944 13.349 13.0029 13.9035 15.2702 14.7803C15.6565 14.9297 15.8486 15.364 15.6992 15.7503C15.5498 16.1366 15.1155 16.3287 14.7292 16.1793C12.589 15.3517 10.2909 14.8199 8.21822 14.4989C7.80889 14.4355 7.52845 14.0523 7.59184 13.6429ZM8.44779 19.6832C8.03846 19.6198 7.65524 19.9003 7.59184 20.3096C7.52845 20.7189 7.80889 21.1022 8.21822 21.1656C9.26379 21.3275 10.3687 21.5434 11.4829 21.8245C11.8845 21.9258 12.2922 21.6824 12.3936 21.2807C12.4949 20.8791 12.2514 20.4714 11.8498 20.37C10.685 20.0762 9.53385 19.8514 8.44779 19.6832Z" fill="white"/>
<path d="M49.5697 28.104V22.952H51.1377L52.5657 26.872C53.3497 27.152 54.3297 27.292 55.5057 27.292C56.775 27.292 57.867 27.068 58.7817 26.62C59.715 26.172 60.1817 25.5093 60.1817 24.632C60.1817 24.4267 60.1537 24.2307 60.0977 24.044C60.0603 23.8573 59.9857 23.68 59.8737 23.512C59.7617 23.344 59.6497 23.1947 59.5377 23.064C59.4257 22.9147 59.2577 22.7653 59.0337 22.616C58.8097 22.448 58.6137 22.3173 58.4457 22.224C58.2777 22.112 58.0257 21.972 57.6897 21.804C57.3723 21.636 56.803 21.356 55.9817 20.964L54.9737 20.488C53.1257 19.592 51.8003 18.6587 50.9977 17.688C50.195 16.6987 49.7937 15.4853 49.7937 14.048C49.7937 12.5173 50.4283 11.2947 51.6977 10.38C52.967 9.44667 54.6097 8.98 56.6257 8.98C58.8843 8.98 60.919 9.26933 62.7297 9.848V15H61.1617L59.7897 11.248C59.0243 11.08 58.287 10.996 57.5777 10.996C56.4763 10.996 55.5337 11.192 54.7497 11.584C53.9657 11.9573 53.5737 12.508 53.5737 13.236C53.5737 13.8893 53.8817 14.44 54.4977 14.888C55.1323 15.3173 56.2523 15.8867 57.8577 16.596L58.4177 16.848C60.3217 17.7067 61.7217 18.6587 62.6177 19.704C63.5137 20.7493 63.9617 22.0187 63.9617 23.512C63.9617 24.912 63.607 26.06 62.8977 26.956C62.207 27.8333 61.2923 28.468 60.1537 28.86C59.015 29.2333 57.7177 29.42 56.2617 29.42C53.947 29.42 51.7163 28.9813 49.5697 28.104ZM66.2487 21.832C66.2487 19.6293 66.8647 17.8747 68.0967 16.568C69.3474 15.2427 71.0367 14.58 73.1647 14.58C75.3301 14.58 76.9634 15.3173 78.0647 16.792C79.1847 18.2667 79.7447 20.0867 79.7447 22.252H70.5607C70.6914 23.6333 71.1861 24.828 72.0447 25.836C72.9034 26.8253 74.0047 27.32 75.3487 27.32C76.3568 27.32 77.4394 27.1053 78.5967 26.676L79.1847 28.272C77.4487 29.0373 75.7501 29.42 74.0888 29.42C71.6807 29.42 69.7674 28.72 68.3487 27.32C66.9487 25.9013 66.2487 24.072 66.2487 21.832ZM70.5607 20.516L75.2927 20.208C75.2927 19.76 75.2647 19.3493 75.2087 18.976C75.1527 18.584 74.9941 18.1173 74.7328 17.576C74.2661 16.792 73.7154 16.4 73.0807 16.4C72.3341 16.4 71.7181 16.7827 71.2327 17.548C70.9527 18.0147 70.7661 18.528 70.6727 19.088C70.5794 19.648 70.5421 20.124 70.5607 20.516ZM81.5666 29V27.516L83.9466 26.956V17.548H81.5666V16.064L86.0466 15H88.2586V16.68C89.6586 15.28 91.3199 14.58 93.2426 14.58C93.3546 14.9347 93.4106 15.3267 93.4106 15.756C93.4106 16.6147 93.3172 17.4173 93.1306 18.164L89.6026 17.576C89.1546 17.7813 88.7066 18.08 88.2586 18.472V26.956L91.1986 27.516V29H81.5666ZM94.8369 25.528C94.8369 23.904 95.4995 22.672 96.8249 21.832C98.1689 20.9733 100.334 20.544 103.321 20.544V19.704C103.321 19.144 103.312 18.7427 103.293 18.5C103.293 18.2387 103.256 17.9307 103.181 17.576C103.106 17.2213 102.994 16.9693 102.845 16.82C102.714 16.6707 102.509 16.54 102.229 16.428C101.949 16.2973 101.604 16.232 101.193 16.232L97.6369 19.312C96.3675 18.584 95.7329 17.4547 95.7329 15.924L96.5729 15.56C96.9275 15.4107 97.6182 15.2147 98.6449 14.972C99.6715 14.7107 100.67 14.58 101.641 14.58C105.654 14.58 107.661 16.1853 107.661 19.396V26.9H109.845V28.104C109.752 28.1973 109.621 28.3187 109.453 28.468C109.285 28.6173 108.921 28.8133 108.361 29.056C107.801 29.2987 107.222 29.42 106.625 29.42C105.206 29.42 104.152 28.944 103.461 27.992C102.21 28.944 100.848 29.42 99.3729 29.42C98.0849 29.42 97.0022 29.0933 96.1249 28.44C95.2662 27.7867 94.8369 26.816 94.8369 25.528ZM99.3449 25.276C99.3449 25.8173 99.5222 26.2467 99.8769 26.564C100.25 26.8813 100.698 27.04 101.221 27.04C102.061 27.04 102.761 26.732 103.321 26.116V22.28C102.276 22.28 101.352 22.56 100.549 23.12C99.7462 23.6613 99.3449 24.38 99.3449 25.276ZM111.004 16.96V15.84L115.764 12.452H116.8V15.14L120.272 15V16.96H116.8V24.968C116.8 25.8827 116.903 26.5267 117.108 26.9C117.314 27.2733 117.734 27.46 118.368 27.46C118.835 27.46 119.46 27.292 120.244 26.956L120.692 28.524C119.572 29.1213 118.387 29.42 117.136 29.42C114.038 29.42 112.488 27.9827 112.488 25.108V16.96H111.004Z" fill="white"/>
</svg>
