<svg width="122" height="40" viewBox="0 0 122 40" fill="none" xmlns="http://www.w3.org/2000/svg">
<path fill-rule="evenodd" clip-rule="evenodd" d="M19.7497 9.25225C19.6143 9.19727 19.4838 9.12677 19.361 9.04074C15.8216 6.56053 10.8542 5.43658 7.15689 5.01879C5.32705 4.81202 3.83301 6.34004 3.83301 8.2253V26.9999C3.83301 28.8852 5.32705 30.4138 7.15689 30.6205C10.8542 31.0383 15.8216 32.1623 19.361 34.6425C19.4838 34.7285 19.6143 34.799 19.7497 34.854V9.25225ZM21.2497 34.854C21.3851 34.799 21.5155 34.7285 21.6383 34.6425C25.1778 32.1623 30.1452 31.0383 33.8425 30.6205C35.6723 30.4138 37.1663 28.8852 37.1663 26.9999V8.2253C37.1663 6.34004 35.6723 4.81202 33.8425 5.01879C30.1452 5.43658 25.1778 6.56053 21.6383 9.04074C21.5155 9.12677 21.3851 9.19727 21.2497 9.25225V34.854ZM8.09184 13.6429C8.15524 13.2336 8.53846 12.9532 8.94779 13.0166C11.0944 13.349 13.5029 13.9035 15.7702 14.7803C16.1565 14.9297 16.3486 15.364 16.1992 15.7503C16.0498 16.1366 15.6155 16.3287 15.2292 16.1793C13.089 15.3517 10.7909 14.8199 8.71822 14.4989C8.30889 14.4355 8.02845 14.0523 8.09184 13.6429ZM8.94779 19.6832C8.53846 19.6198 8.15524 19.9003 8.09184 20.3096C8.02845 20.7189 8.30889 21.1022 8.71822 21.1656C9.76379 21.3275 10.8687 21.5434 11.9829 21.8245C12.3845 21.9258 12.7922 21.6824 12.8936 21.2807C12.9949 20.8791 12.7514 20.4714 12.3498 20.37C11.185 20.0762 10.0338 19.8514 8.94779 19.6832Z" fill="#0B1220"/>
<path d="M50.0697 28.104V22.952H51.6377L53.0657 26.872C53.8497 27.152 54.8297 27.292 56.0057 27.292C57.275 27.292 58.367 27.068 59.2817 26.62C60.215 26.172 60.6817 25.5093 60.6817 24.632C60.6817 24.4267 60.6537 24.2307 60.5977 24.044C60.5603 23.8573 60.4857 23.68 60.3737 23.512C60.2617 23.344 60.1497 23.1947 60.0377 23.064C59.9257 22.9147 59.7577 22.7653 59.5337 22.616C59.3097 22.448 59.1137 22.3173 58.9457 22.224C58.7777 22.112 58.5257 21.972 58.1897 21.804C57.8723 21.636 57.303 21.356 56.4817 20.964L55.4737 20.488C53.6257 19.592 52.3003 18.6587 51.4977 17.688C50.695 16.6987 50.2937 15.4853 50.2937 14.048C50.2937 12.5173 50.9283 11.2947 52.1977 10.38C53.467 9.44667 55.1097 8.98 57.1257 8.98C59.3843 8.98 61.419 9.26933 63.2297 9.848V15H61.6617L60.2897 11.248C59.5243 11.08 58.787 10.996 58.0777 10.996C56.9763 10.996 56.0337 11.192 55.2497 11.584C54.4657 11.9573 54.0737 12.508 54.0737 13.236C54.0737 13.8893 54.3817 14.44 54.9977 14.888C55.6323 15.3173 56.7523 15.8867 58.3577 16.596L58.9177 16.848C60.8217 17.7067 62.2217 18.6587 63.1177 19.704C64.0137 20.7493 64.4617 22.0187 64.4617 23.512C64.4617 24.912 64.107 26.06 63.3977 26.956C62.707 27.8333 61.7923 28.468 60.6537 28.86C59.515 29.2333 58.2177 29.42 56.7617 29.42C54.447 29.42 52.2163 28.9813 50.0697 28.104ZM66.7487 21.832C66.7487 19.6293 67.3647 17.8747 68.5967 16.568C69.8474 15.2427 71.5367 14.58 73.6647 14.58C75.8301 14.58 77.4634 15.3173 78.5647 16.792C79.6847 18.2667 80.2447 20.0867 80.2447 22.252H71.0607C71.1914 23.6333 71.6861 24.828 72.5447 25.836C73.4034 26.8253 74.5047 27.32 75.8487 27.32C76.8568 27.32 77.9394 27.1053 79.0967 26.676L79.6847 28.272C77.9487 29.0373 76.2501 29.42 74.5888 29.42C72.1807 29.42 70.2674 28.72 68.8487 27.32C67.4487 25.9013 66.7487 24.072 66.7487 21.832ZM71.0607 20.516L75.7927 20.208C75.7927 19.76 75.7647 19.3493 75.7087 18.976C75.6527 18.584 75.4941 18.1173 75.2328 17.576C74.7661 16.792 74.2154 16.4 73.5807 16.4C72.8341 16.4 72.2181 16.7827 71.7327 17.548C71.4527 18.0147 71.2661 18.528 71.1727 19.088C71.0794 19.648 71.0421 20.124 71.0607 20.516ZM82.0666 29V27.516L84.4466 26.956V17.548H82.0666V16.064L86.5466 15H88.7586V16.68C90.1586 15.28 91.8199 14.58 93.7426 14.58C93.8546 14.9347 93.9106 15.3267 93.9106 15.756C93.9106 16.6147 93.8172 17.4173 93.6306 18.164L90.1026 17.576C89.6546 17.7813 89.2066 18.08 88.7586 18.472V26.956L91.6986 27.516V29H82.0666ZM95.3369 25.528C95.3369 23.904 95.9995 22.672 97.3249 21.832C98.6689 20.9733 100.834 20.544 103.821 20.544V19.704C103.821 19.144 103.812 18.7427 103.793 18.5C103.793 18.2387 103.756 17.9307 103.681 17.576C103.606 17.2213 103.494 16.9693 103.345 16.82C103.214 16.6707 103.009 16.54 102.729 16.428C102.449 16.2973 102.104 16.232 101.693 16.232L98.1369 19.312C96.8675 18.584 96.2329 17.4547 96.2329 15.924L97.0729 15.56C97.4275 15.4107 98.1182 15.2147 99.1449 14.972C100.172 14.7107 101.17 14.58 102.141 14.58C106.154 14.58 108.161 16.1853 108.161 19.396V26.9H110.345V28.104C110.252 28.1973 110.121 28.3187 109.953 28.468C109.785 28.6173 109.421 28.8133 108.861 29.056C108.301 29.2987 107.722 29.42 107.125 29.42C105.706 29.42 104.652 28.944 103.961 27.992C102.71 28.944 101.348 29.42 99.8729 29.42C98.5849 29.42 97.5022 29.0933 96.6249 28.44C95.7662 27.7867 95.3369 26.816 95.3369 25.528ZM99.8449 25.276C99.8449 25.8173 100.022 26.2467 100.377 26.564C100.75 26.8813 101.198 27.04 101.721 27.04C102.561 27.04 103.261 26.732 103.821 26.116V22.28C102.776 22.28 101.852 22.56 101.049 23.12C100.246 23.6613 99.8449 24.38 99.8449 25.276ZM111.504 16.96V15.84L116.264 12.452H117.3V15.14L120.772 15V16.96H117.3V24.968C117.3 25.8827 117.403 26.5267 117.608 26.9C117.814 27.2733 118.234 27.46 118.868 27.46C119.335 27.46 119.96 27.292 120.744 26.956L121.192 28.524C120.072 29.1213 118.887 29.42 117.636 29.42C114.538 29.42 112.988 27.9827 112.988 25.108V16.96H111.504Z" fill="#0B1220"/>
</svg>
